<svg width="20" height="20" viewBox="0 0 20 20" fill="none" xmlns="http://www.w3.org/2000/svg">
<path d="M9.9996 0C15.5233 0 20.0011 4.47785 20.0011 10.0016C20.0011 15.5253 15.5233 20.0031 9.9996 20.0031C4.47589 20.0031 -0.00195312 15.5253 -0.00195312 10.0016C-0.00195312 4.47785 4.47589 0 9.9996 0ZM12.9385 14.5013H7.06069C7.71273 16.9154 8.84609 18.5031 9.9996 18.5031C11.1531 18.5031 12.2865 16.9154 12.9385 14.5013ZM5.50791 14.5018L2.78542 14.5017C3.74376 16.0348 5.17721 17.2404 6.87959 17.9123C6.35731 17.0925 5.92632 16.0662 5.60932 14.8968L5.50791 14.5018ZM17.2138 14.5017L14.4913 14.5018C14.1675 15.8356 13.6999 17.0014 13.1185 17.9124C14.7155 17.2824 16.0752 16.1834 17.0286 14.7853L17.2138 14.5017ZM5.09302 8.0009H1.73542L1.73066 8.01811C1.57858 8.65446 1.49805 9.3186 1.49805 10.0016C1.49805 11.0577 1.69064 12.0689 2.04261 13.0019L5.21577 13.0015C5.07347 12.0524 4.99805 11.0442 4.99805 10.0016C4.99805 9.31754 5.03051 8.64834 5.09302 8.0009ZM13.3965 8.00097H6.60267C6.53465 8.64123 6.49805 9.31094 6.49805 10.0016C6.49805 11.0611 6.58419 12.0714 6.73778 13.0016H13.2614C13.415 12.0714 13.5011 11.0611 13.5011 10.0016C13.5011 9.31094 13.4645 8.64123 13.3965 8.00097ZM18.2642 8.00007L14.9062 8.00092C14.9687 8.64834 15.0011 9.31754 15.0011 10.0016C15.0011 11.0442 14.9257 12.0524 14.7834 13.0015L17.9566 13.0019C18.3086 12.0689 18.5011 11.0577 18.5011 10.0016C18.5011 9.31215 18.4191 8.6419 18.2642 8.00007ZM6.88065 2.0907L6.85774 2.09942C4.81043 2.91413 3.15441 4.50144 2.24975 6.5013L5.29787 6.50167C5.61122 4.74888 6.15807 3.22295 6.88065 2.0907ZM9.9996 1.5L9.88395 1.5053C8.6185 1.62106 7.39603 3.62302 6.82831 6.50125H13.1709C12.6048 3.63109 11.3875 1.63229 10.1259 1.50632L9.9996 1.5ZM13.1196 2.09076L13.2264 2.26486C13.8957 3.37732 14.4038 4.83721 14.7013 6.50167L17.7494 6.5013C16.8848 4.5899 15.3338 3.05536 13.4108 2.21204L13.1196 2.09076Z" fill="white"/>
</svg>
