<svg width="32" height="32" viewBox="0 0 32 32" fill="none" xmlns="http://www.w3.org/2000/svg">
<path fill-rule="evenodd" clip-rule="evenodd" d="M11 5L26 5C26.2652 5 26.5196 5.10536 26.7071 5.29289C26.8946 5.48043 27 5.73478 27 6V21C27 21.5523 26.5523 22 26 22C25.4477 22 25 21.5523 25 21V8.41421L6.70711 26.7071C6.31658 27.0976 5.68342 27.0976 5.29289 26.7071C4.90237 26.3166 4.90237 25.6834 5.29289 25.2929L23.5858 7L11 7C10.4477 7 10 6.55229 10 6C10 5.44772 10.4477 5 11 5Z" fill="white"/>
</svg>
