<svg width="105" height="60" viewBox="0 0 105 60" fill="none" xmlns="http://www.w3.org/2000/svg">
<path d="M21.2292 48.3053C18.0746 52.1622 15.3625 58.4228 22.2439 58.4228H23.6438C34.5699 58.4228 56.7428 45.1301 63.4583 40.3191C60.9498 40.202 59.4845 41.5094 57.5305 42.615C55.6565 43.6756 53.9671 44.5817 52.0176 45.5068C48.1687 47.3334 44.279 49.1557 40.0437 50.5599C29.3587 54.1024 20.3034 53.4995 28.4588 42.7052C29.0439 41.9308 29.9409 41.0371 30.3109 40.3247C29.0144 40.2646 28.5025 40.993 27.7419 41.7537C24.9434 44.5526 25.0611 43.6199 21.2292 48.3053Z" fill="white"/>
<path d="M37.5182 29.1375C37.0139 30.8369 34.9299 37.1993 34.9272 38.4896L40.3237 38.4859L43.405 27.2815C44.1143 28.0397 47.5574 34.9426 48.6373 36.9261C49.3225 38.1847 50.0112 38.8003 51.8726 38.7802C54.8563 38.748 55.4976 35.9056 56.653 33.8028C57.7313 31.8406 59.3281 29.1323 60.0343 27.117C60.159 27.285 60.1717 27.2702 60.3016 27.5844L60.8805 29.8081C61.1582 30.862 61.3963 31.7356 61.6676 32.7474C62.0566 34.1988 62.7959 37.4273 63.3474 38.4896H68.8025C68.8221 37.3726 66.7219 30.7305 66.2603 29.1169C65.5528 26.6431 64.5036 21.4487 62.9768 20.257C61.5046 19.1079 59.4874 19.6548 58.5094 20.7319C57.3359 22.0243 52.5355 31.4669 51.8743 32.2516C51.143 31.0508 50.5091 29.6005 49.7634 28.3376C48.8927 26.8627 46.0812 21.5319 45.2952 20.672C44.2388 19.5166 42.2225 19.2683 40.7822 20.2707C39.4135 21.2233 38.1931 26.8625 37.5182 29.1375Z" fill="white"/>
<path d="M89.1993 38.5009C90.3824 38.3965 92.9289 34.8325 93.4571 33.7273C90.017 33.7273 86.5764 33.7257 83.1362 33.7273C79.4448 33.729 76.7312 33.7232 75.4576 30.8706C74.0609 27.7419 76.8772 25.1987 79.4292 24.8456C82.0954 24.4766 86.9865 24.7699 89.8882 24.7658C90.9577 23.2575 92.5581 21.5672 93.5057 19.9202C89.1087 19.9202 79.9718 19.4371 76.2853 20.5484C65.4467 23.8163 67.6803 38.0766 80.3332 38.4769C82.7281 38.5528 86.9256 38.7017 89.1993 38.5009Z" fill="white"/>
<path d="M10.0084 28.8993C13.6484 33.1393 23.9077 29.5626 27.8604 31.5032L27.8846 33.2238C26.0112 34.2654 15.0066 33.7273 11.9591 33.7273C11.4323 34.4889 10.777 35.2268 10.1588 36.0719C9.71638 36.6767 8.69456 38.0987 8.3999 38.4365L26.4316 38.4568C35.6517 37.9775 34.0105 30.3111 32.044 28.7923C28.5864 26.122 17.9845 28.0116 15.4373 27.2159C14.1357 26.8092 14.0847 25.0904 15.7143 24.8177C16.8076 24.6349 19.1566 24.7666 20.3772 24.7666C23.2172 24.7666 26.6063 24.9331 29.3792 24.7256L32.9685 19.9467C28.5759 19.7668 23.871 19.9212 19.444 19.9202C15.2018 19.9192 10.6164 20.0031 9.31814 23.5642C8.63244 25.4452 8.93928 27.6541 10.0084 28.8993Z" fill="white"/>
<path d="M65.1994 11.5506C61.5564 13.6413 61.8437 13.9793 58.8453 12.4133C59.1783 15.6152 57.6899 15.9753 55.7148 17.2357L55.6376 17.2848C54.6945 17.8865 51.5201 19.9108 50.8809 20.6548C55.554 18.5813 58.504 13.8226 61.5855 17.0639C61.2701 13.6139 62.2104 13.7412 64.6732 12.4256C70.1808 9.484 75.6988 6.74806 81.8429 4.86975C84.7302 3.98688 93.4264 1.58152 94.6376 5.39782C95.7792 8.99387 90.3892 14.4167 89.1281 16.1948C90.0186 15.7106 92.6286 12.6623 93.4335 11.5571C101.056 1.09262 93.9432 0.0770675 83.9191 3.21025C77.9782 5.06744 70.5483 8.48055 65.1994 11.5506Z" fill="white"/>
</svg>
